inDegrees=no
num_controls=7
num_derivatives=13
num_iterations=43
num_multipliers=7
num_parameters=0
num_slacks=7
num_states=26
objective=0.385600
objective_accelerations=0.000000
objective_balance=0.009483
objective_effort=0.035149
objective_height=0.338661
objective_ligament=0.002307
solver_duration=551.792629
status=Solve_Succeeded
success=true
DataType=double
version=3
OpenSimVersion=4.5
endheader
time	/jointset/ground_pelvis/pelvis_tilt/value	/jointset/ground_pelvis/pelvis_tx/value	/jointset/ground_pelvis/pelvis_ty/value	/jointset/hip_l/hip_flexion_l/value	/jointset/hip_l/hip_adduction_l/value	/jointset/hip_l/hip_rotation_l/value	/jointset/back/lumbar_extension/value	/jointset/patellofemoral_l/patellar_flexion_l/value	/jointset/knee_l/knee_flexion_l/value	/jointset/knee_l/knee_adduction_l/value	/jointset/knee_l/knee_rotation_l/value	/jointset/ankle_l/ankle_angle_l/value	/jointset/subtalar_l/subtalar_angle_l/value	/jointset/ground_pelvis/pelvis_tilt/speed	/jointset/ground_pelvis/pelvis_tx/speed	/jointset/ground_pelvis/pelvis_ty/speed	/jointset/hip_l/hip_flexion_l/speed	/jointset/hip_l/hip_adduction_l/speed	/jointset/hip_l/hip_rotation_l/speed	/jointset/back/lumbar_extension/speed	/jointset/patellofemoral_l/patellar_flexion_l/speed	/jointset/knee_l/knee_flexion_l/speed	/jointset/knee_l/knee_adduction_l/speed	/jointset/knee_l/knee_rotation_l/speed	/jointset/ankle_l/ankle_angle_l/speed	/jointset/subtalar_l/subtalar_angle_l/speed	/forceset/tau_hip_flexion_l	/forceset/tau_hip_adduction_l	/forceset/tau_hip_rotation_l	/forceset/tau_knee_flexion_l	/forceset/tau_ankle_angle_l	/forceset/tau_subtalar_angle_l	/forceset/tau_lumbar_extension	lambda_cid13_p0	lambda_cid13_p1	lambda_cid13_p2	lambda_cid13_p3	lambda_cid13_p4	lambda_cid13_p5	lambda_cid14_p0	/jointset/ground_pelvis/pelvis_tilt/accel	/jointset/ground_pelvis/pelvis_tx/accel	/jointset/ground_pelvis/pelvis_ty/accel	/jointset/hip_l/hip_flexion_l/accel	/jointset/hip_l/hip_adduction_l/accel	/jointset/hip_l/hip_rotation_l/accel	/jointset/back/lumbar_extension/accel	/jointset/patellofemoral_l/patellar_flexion_l/accel	/jointset/knee_l/knee_flexion_l/accel	/jointset/knee_l/knee_adduction_l/accel	/jointset/knee_l/knee_rotation_l/accel	/jointset/ankle_l/ankle_angle_l/accel	/jointset/subtalar_l/subtalar_angle_l/accel	gamma_cid13_p0	gamma_cid13_p1	gamma_cid13_p2	gamma_cid13_p3	gamma_cid13_p4	gamma_cid13_p5	gamma_cid14_p0
0.5	-0.3656475679551113	-0.04175023779262706	0.7287761440603812	1.329361993261606	-0.1973073098602606	0.1151721528829356	-0.17876550692523	0.9858701762806044	0.9858701762803795	-0.02994825474114532	-0.007191800167475886	0.2308302362112512	0.1277673256241478	-0.7985641144377081	-0.1380138328498267	-0.4591391659447374	2.038615285628864	0.1011953553223818	0.2895354313574051	0.1526870175940655	1.441108406969335	1.441108406969277	0.09720526567024834	-0.03266918063223889	0.2372778195372248	0.2004279260210994	-0.171534880183955	0.08515418012232498	-0.004545179929024062	-0.3650606103950784	0.1682709208812755	-0.0127910141614879	0.1627120942223949	10.02267784303415	16.52344151279082	-17.56966473302553	1.315260903760125	-646.3746490845957	-15.63958485391425	-8.05663090743491	1.695209141806243	0.4218113958832959	0.4551391274602908	-3.832115357969621	-1.799591603501898	-2.03891631368217	-0.08489075332247813	-3.234211142213509	-3.234211142213509	-2.147165033734775	3.453593542777276	-1.156289086872991	-2.574619358202124	1.004400163975845e-07	-1.13257101292049e-06	-6.121794604207131e-07	-2.439137257773335e-07	6.740584775004596e-08	-4.665942086995247e-07	5.355588360932599e-08
0.51	-0.3735470007230182	-0.04310916704167927	0.7242080250025124	1.34955551429163	-0.1963826515266944	0.117963807013947	-0.1772437968340244	1.000121270406564	1.000121270405079	-0.02907556999129828	-0.007347895120958448	0.2331469447748201	0.1296464193254931	-0.78113215580496	-0.1337568827464344	-0.454425494994336	1.999918067300493	0.08409412499669662	0.2688042430315778	0.151513459948909	1.409292495678278	1.409292495678222	0.07812744362592265	0.0009604730831865866	0.2262546520536756	0.1758740330730666	-0.176839891093205	0.08555306807839703	-0.00441778646976526	-0.3653367473795138	0.1669516970374698	-0.01294083953691265	0.165925483787585	9.435320718266995	16.81050294481476	-17.75152834480122	1.422374307978734	-648.1451375877939	-15.71183743330962	-7.22259753530496	1.79574074179875	0.4298623665509712	0.4883636751429977	-3.914141287802828	-1.611564439030082	-2.088963216843054	-0.1548192272273874	-3.127980692245413	-3.127980692251546	-1.668899352775826	3.244290331475449	-1.046741291661087	-2.323071297291375	1.037628315669314e-07	-9.230281971372644e-07	-4.315617565851846e-07	-1.982034749973933e-07	4.194527033534439e-08	-3.854028636326052e-07	4.846579889802002e-08
0.52	-0.3812664036045725	-0.04442508168012266	0.7196888191734363	1.369356939892316	-0.1956182406349038	0.1205484006368817	-0.1757380685111842	1.014059665505263	1.014059665505119	-0.02836982517408341	-0.007182365728041814	0.235359139520894	0.1312945146905833	-0.7625581364474542	-0.129410910728064	-0.44935652018618	1.960196200270407	0.06914586699382215	0.2481233297135917	0.149490664029398	1.378568601599621	1.378568601599568	0.06381727906214693	0.0316556886205572	0.2163750560663783	0.1542282587573427	-0.1821449020021638	0.08595195603422727	-0.004290393015266614	-0.3656128843635278	0.1656324731943918	-0.01309066491235315	0.1691388733528592	8.848432760535301	17.07139118438367	-17.89941723826292	1.514846444962306	-650.0038209132684	-15.84604835042223	-6.44948750650768	1.923621286855801	0.4396157787985027	0.5261998989948633	-4.037045098299951	-1.36899713892483	-2.028861312105848	-0.2547384081372973	-3.015807699718808	-3.015807699718808	-1.19363353760906	2.866705907159783	-0.9275747877407401	-1.992995631765344	8.435937410200465e-08	-7.296259850796822e-07	-2.583332245864545e-07	-1.505484305996687e-07	2.519457250904245e-08	-3.127931130281874e-07	3.288426403616297e-08
0.53	-0.3887952964717186	-0.04569721332526678	0.7152219895423573	1.388756743766092	-0.1949940045705068	0.1229292010623233	-0.1742563131346485	1.027695468411622	1.02769546841005	-0.02778844920385724	-0.006724836048482664	0.237477441613117	0.1327387207494516	-0.7431133587322362	-0.1250119508575855	-0.4439578406463815	1.919657016100781	0.05589450286066169	0.2282393094787745	0.1467574289070457	1.348690517349589	1.348690517349538	0.05276946309784143	0.05943709833855975	0.2073964613705035	0.1348717519814354	-0.1867431754648978	0.08602743179439631	-0.004173320693361488	-0.3663752043511651	0.1647941201547438	-0.01331896223292709	0.1718316445826158	8.417218686122887	17.34542531480932	-18.05662417887358	1.665240155711197	-651.7077744805227	-15.91704563636914	-5.734353824149841	1.970976016166502	0.4405308932391344	0.5544400237486212	-4.078479408570986	-1.274166269227545	-1.937850348318521	-0.2980632786043341	-2.959033029258314	-2.959033029263	-1.013725414994939	2.671916692703419	-0.8663489057916627	-1.868041101299989	1.031532984364299e-07	-5.153470706694751e-07	-1.879377607482295e-07	-1.192357597904544e-07	1.998479638492536e-08	-2.493829051782531e-07	4.313769196131083e-08
0.54	-0.3961265275646249	-0.04692525641149551	0.7108106943151584	1.407747930929326	-0.1944964741912524	0.1251172256915263	-0.1728049795526788	1.041035445626547	1.041035445626455	-0.02730822535169658	-0.006001880634033875	0.2395092883392277	0.1339971491604635	-0.7230257809119968	-0.1205931989449877	-0.4382496394101351	1.878472858639866	0.04380472997894808	0.2095681704780272	0.1434063052214952	1.319403463435178	1.31940346343513	0.04358685556752454	0.08474083559970041	0.199083982862311	0.1170727291734735	-0.1913414489271764	0.08610290755384015	-0.004056248363163203	-0.3671375243383276	0.1639557671156661	-0.01354725955428389	0.174524415812542	7.986061247786016	17.59870479037115	-18.18682659252237	1.794877693306263	-653.4987798230901	-16.03812950990123	-5.074457485735818	2.052181307954122	0.4435741871470201	0.5881042382686905	-4.166039756545439	-1.136678888620126	-1.786285065284202	-0.3783161207238602	-2.897601632580918	-2.897601632580918	-0.8205918507964921	2.371171415781016	-0.7943515503167101	-1.681498838200112	1.642081558254579e-07	-2.779705281244489e-07	-2.31315053172692e-07	-1.060040129515071e-07	2.754369959088527e-08	-1.961509148439178e-07	8.197448296995382e-08
0.55	-0.4032538636451999	-0.04810910687239577	0.7064580390351949	1.426324219395225	-0.1941076678606903	0.1271223318605349	-0.1713903009748011	1.05408678454769	1.054086784546528	-0.0268982302378713	-0.005046407267079596	0.2414622526747567	0.1350939712723356	-0.7023453597594648	-0.1161819955805307	-0.4322283342551937	1.836679631361982	0.03475449862832893	0.1913475504522028	0.1394120784445724	1.291078815234318	1.291078815234271	0.03994699347441524	0.1051856542343836	0.1917081087050178	0.1033765050070645	-0.1956850983469554	0.0869191344838153	-0.004008733668942165	-0.3679074242570339	0.1631798410094095	-0.01388143502228281	0.1770166268711342	7.578900401415992	17.88283791650942	-18.30946687826285	1.934040380650608	-655.1342210932754	-16.14327775371835	-4.46723303725113	2.090412450919027	0.4391081043839237	0.6171122937978248	-4.201714852263994	-0.6694614431319411	-1.855763368890743	-0.4275756073631879	-2.767742841256173	-2.767742841259494	0.0945220049333515	1.705957215557387	-0.6792933340727749	-1.050913059801581	1.38226652856545e-07	-1.512112357601095e-07	-1.569567304349491e-07	-7.620340895186112e-08	2.950765614781743e-08	-1.317146609350209e-07	6.745814598532338e-08
0.5600000000000001	-0.4101715075311234	-0.04924900236117884	0.7021671905347467	1.444479425458257	-0.193785417080706	0.128942069249829	-0.1700190845954058	1.066861307701077	1.066861307701047	-0.02647859266607293	-0.003921521687984817	0.2433474406714355	0.1360863853718169	-0.681087341314433	-0.1118022045215522	-0.4258882835070243	1.794256378529847	0.03049361988368656	0.1724944145202236	0.1347138656291786	1.264040309936881	1.264040309936837	0.04551534712165322	0.1186232779988155	0.1855287151212104	0.09619112668286624	-0.200028747766381	0.08773536141364663	-0.003961218978689028	-0.3686773241753806	0.1624039149037494	-0.01421561049022448	0.1795088379298226	7.17049638614571	18.15505230161082	-18.41634267138525	2.052054933743246	-656.8461136954637	-16.27915845321857	-3.910063599942508	2.167700766544091	0.4372917259807603	0.6518533568991514	-4.292044867384199	-0.1788083674107233	-1.912788246507846	-0.5191133283678465	-2.640373051883876	-2.640373051883876	1.02105129728701	0.9697324417242511	-0.5550554357264698	-0.3793296697805207	7.801517458106335e-09	-1.571926436125898e-07	5.86843304974358e-08	-2.652017635937725e-08	2.47576767259165e-08	-5.383329073665072e-08	-1.108194459123311e-08
0.5700000000000001	-0.4168737801022592	-0.05034512032288539	0.697941234803981	1.462207003596774	-0.1934937797375839	0.1305755840186474	-0.1686979250941395	1.079369122537571	1.079369122536495	-0.02598245378359859	-0.002683564437192047	0.2451747984650552	0.1370235939518473	-0.6592720471006159	-0.1074125544358862	-0.419259114047388	1.751134971224776	0.02742077779531911	0.1546528705020512	0.1294356288133015	1.237471830848661	1.237471830848618	0.0527231359406156	0.129278487461276	0.1799426363155046	0.09070797149895719	-0.2041059697557332	0.08684006098221476	-0.003830370639929942	-0.3695040149437113	0.1617076712135093	-0.01449052120827255	0.1819053976280831	6.801594391558262	18.39182233564069	-18.51438242739	2.199615892899671	-658.4155621619545	-16.32988979028588	-3.40003967451675	2.202703029601754	0.4411267894335271	0.6750154034913475	-4.34083974613376	-0.4334984514488189	-1.653230555410631	-0.5445396005850723	-2.672698177672444	-2.672698177674448	0.4222213726644189	1.159927382658648	-0.5604320098651882	-0.7141961520060456	-4.168104795145799e-08	-1.159545859365793e-07	1.299721960072586e-07	-1.455396856637991e-09	2.349538649388986e-08	-3.108411853861774e-08	-3.716703798653585e-08
0.58	-0.4233550478782418	-0.0513970767559884	0.6937828841004391	1.479499637443231	-0.1932452660798041	0.132044004732091	-0.1674320201099783	1.09160973001484	1.091609730014856	-0.02544392127333796	-0.001329752654852381	0.24694628588911	0.1378896934382371	-0.636886381643516	-0.102969898800843	-0.4123672780621916	1.707267520557183	0.02186888283098113	0.139475603446465	0.1236629623103472	1.210598838145303	1.210598838145263	0.05399407269833233	0.1417941842897012	0.1743546412339236	0.08196930794247692	-0.2081831917446735	0.08594476055050637	-0.00369952230074926	-0.3703307057116962	0.1610114275237693	-0.01476543192648969	0.1843019573264667	6.430558700953915	18.62049074641853	-18.601450154631	2.32246685941295	-660.0671703579945	-16.40137792064663	-2.934903075849052	2.281775015286799	0.4478928357902462	0.7043866619966395	-4.441253539877388	-0.6746189425910916	-1.379932853983652	-0.6179992657358582	-2.701275774900223	-2.701275774900223	-0.1663191149488855	1.341829914910775	-0.5554386910029617	-1.030431344316099	1.424996615936817e-08	-1.322141036300234e-08	1.326520236212395e-08	-8.451858587053381e-09	2.677520311379233e-08	-8.013501815497453e-08	5.061353319326456e-09
